<svg width="112" height="32" viewBox="0 0 112 32" fill="none" xmlns="http://www.w3.org/2000/svg">
<path d="M13.2801 28.28C12.6931 28.28 12.1301 28.0469 11.7151 27.6318C11.3 27.2167 11.0668 26.6537 11.0668 26.0667C11.0668 25.4797 11.3 24.9167 11.7151 24.5016C12.1301 24.0865 12.6931 23.8533 13.2801 23.8533H29.8803C30.4671 23.8527 31.0297 23.6193 31.4447 23.2043C31.8596 22.7894 32.093 22.2268 32.0937 21.64V7.25317C32.093 6.66635 31.8596 6.10374 31.4447 5.6888C31.0297 5.27386 30.4671 5.04046 29.8803 5.03981H4.86938C4.75198 5.03981 4.63938 5.08645 4.55637 5.16947C4.47335 5.25248 4.42671 5.36508 4.42671 5.48248V14.9999C4.42671 15.5869 4.19352 16.1499 3.77843 16.565C3.36335 16.9801 2.80037 17.2133 2.21336 17.2133C1.62634 17.2133 1.06336 16.9801 0.648277 16.565C0.233192 16.1499 0 15.5869 0 14.9999V1.05577C0 0.938368 0.0466385 0.825773 0.129655 0.742756C0.212672 0.659739 0.325267 0.613101 0.442671 0.613101H29.8803C30.7525 0.612315 31.6163 0.783529 32.4223 1.11694C33.2282 1.45036 33.9605 1.93943 34.5773 2.55618C35.194 3.17292 35.6831 3.90523 36.0165 4.71119C36.3499 5.51716 36.5212 6.38096 36.5204 7.25317V21.64C36.5212 22.5122 36.3499 23.376 36.0165 24.182C35.6831 24.9879 35.194 25.7202 34.5773 26.337C33.9605 26.9537 33.2282 27.4428 32.4223 27.7762C31.6163 28.1096 30.7525 28.2808 29.8803 28.28H13.2801Z" fill="#0E151A"/>
<path d="M1.77068 28.28C1.30107 28.28 0.850689 28.0935 0.518621 27.7614C0.186554 27.4293 0 26.979 0 26.5093V23.4106C0 22.941 0.186554 22.4906 0.518621 22.1586C0.850689 21.8265 1.30107 21.64 1.77068 21.64H4.86938C5.339 21.64 5.78938 21.8265 6.12145 22.1586C6.45351 22.4906 6.64007 22.941 6.64007 23.4106V26.5093C6.64007 26.979 6.45351 27.4293 6.12145 27.7614C5.78938 28.0935 5.339 28.28 4.86938 28.28H1.77068Z" fill="#F2D027"/>
<path d="M48.2512 27.7637H50.407C50.5508 28.6789 51.4736 29.2245 52.7144 29.2245C53.9317 29.2245 54.7646 28.6344 54.7646 27.8325C54.7646 27.1138 54.2502 26.7055 52.881 26.4255L51.7301 26.1984C49.5524 25.7661 48.4855 24.7223 48.4855 23.0957C48.4855 21.0986 50.2257 19.7757 52.654 19.7757C55.2035 19.7757 56.8073 21.1072 56.8452 23.1119H54.6889C54.6134 22.1822 53.8036 21.6216 52.654 21.6216C51.5269 21.6216 50.7704 22.151 50.7704 22.9532C50.7704 23.6265 51.2998 24.0426 52.5853 24.2998L53.7427 24.5342C56.0506 24.9948 57.0557 25.9244 57.0557 27.582C57.0557 29.7154 55.3837 31.062 52.6526 31.062C50.0515 31.062 48.3191 29.8212 48.2512 27.7637ZM104.238 26.8633C104.238 24.2761 105.751 22.5966 108.149 22.5966C110.509 22.5966 112 24.1929 112 26.6592V27.3325H106.409V27.4686C106.409 28.6262 107.142 29.4206 108.27 29.4206C109.079 29.4206 109.699 29.0195 109.904 28.3993H111.931C111.689 29.9879 110.237 31.0554 108.232 31.0554C105.735 31.0554 104.237 29.458 104.237 26.8633H104.238ZM106.432 25.9779H109.874C109.829 24.9414 109.155 24.2294 108.172 24.2294C107.203 24.2294 106.507 24.9644 106.431 25.9779H106.432ZM57.9647 26.8177C57.9647 24.1926 59.5534 22.5964 61.9817 22.5964C64.41 22.5964 65.9987 24.1849 65.9987 26.8177C65.9987 29.4881 64.4326 31.0543 61.9817 31.0543C59.5309 31.0543 57.9647 29.4808 57.9647 26.8177ZM60.2039 26.8252C60.2039 28.4518 60.8923 29.3672 61.9819 29.3672C63.0636 29.3672 63.7526 28.4518 63.7526 26.8252C63.7526 25.2139 63.0565 24.2834 61.9819 24.2834C60.9073 24.2834 60.2039 25.213 60.2039 26.8254V26.8252ZM90.3702 28.5501C90.3702 27.0751 91.505 26.2201 93.5249 26.099L95.5676 25.9782V25.441C95.5676 24.6847 95.0382 24.2458 94.2059 24.2458C93.3815 24.2458 92.8593 24.6543 92.7533 25.252H90.7334C90.8166 23.6785 92.1557 22.5959 94.3042 22.5959C96.3848 22.5959 97.7389 23.6703 97.7389 25.3042V30.8796H95.6057V29.6402H95.5603C95.1063 30.5034 94.0995 31.0096 93.0864 31.0096C91.5431 31.0096 90.3704 30.0116 90.3704 28.5514L90.3702 28.5501ZM93.8578 27.423C93.0333 27.4835 92.5641 27.8542 92.5641 28.4292C92.5641 29.0344 93.0632 29.4126 93.8122 29.4126C94.773 29.4126 95.5674 28.7845 95.5674 27.9075V27.3175L93.8578 27.423ZM73.6359 28.6939V24.4348H72.4936V22.7703H73.6359V19.964H75.8451V22.7703H77.3428V24.4348H75.8451V28.3148C75.8451 28.9345 76.1476 29.23 76.7981 29.23C76.9778 29.2309 77.1573 29.2183 77.3351 29.1922V30.8188C76.9887 30.8855 76.6364 30.9159 76.2837 30.9095C74.3776 30.9106 73.6361 30.2752 73.6361 28.6939H73.6359ZM99.1608 30.8801V22.7703H101.294V24.2312H101.34C101.627 23.2024 102.315 22.6426 103.269 22.6426C103.481 22.6406 103.692 22.6686 103.897 22.7259V24.6701C103.639 24.5794 103.368 24.5358 103.095 24.5415C102.006 24.5415 101.37 25.2072 101.37 26.3496V30.881L99.1608 30.8801ZM85.43 30.8801L83.9625 25.1457H83.9172L82.4563 30.8801H80.1348L77.9785 22.7703H80.2029L81.4285 28.7847H81.4738L82.9112 22.7703H85.0294L86.4745 28.7847H86.5198L87.7529 22.7703H89.9317L87.7832 30.8803L85.43 30.8801ZM67.7231 30.8801V24.4348H66.6187V22.8082H67.724V22.1955C67.724 20.607 68.473 19.8655 70.3944 19.8655C70.7724 19.8651 71.1496 19.8981 71.5217 19.964V21.4248C71.3242 21.3928 71.1242 21.378 70.9241 21.3806C70.1979 21.3806 69.8801 21.6984 69.8801 22.2732V22.8102H71.4914V24.4368H69.9327V30.8823L67.7231 30.8801ZM98.0815 7.44639C98.0815 4.82135 99.6703 3.22508 102.099 3.22508C104.527 3.22508 106.116 4.81361 106.116 7.44639C106.116 10.1168 104.55 11.6828 102.099 11.6828C99.6475 11.6828 98.0815 10.1093 98.0815 7.44639ZM100.321 7.45392C100.321 7.5046 100.321 7.55463 100.323 7.60443C100.364 9.13673 101.043 9.99485 102.099 9.99485C103.147 9.99485 103.825 9.13563 103.867 7.60443C103.868 7.55485 103.869 7.50483 103.869 7.45392C103.869 5.8426 103.173 4.9121 102.098 4.9121C101.024 4.9121 100.321 5.8426 100.321 7.45392ZM59.0313 7.49177C59.0313 4.90458 60.5443 3.22508 62.9427 3.22508C65.3031 3.22508 66.794 4.82135 66.794 7.2877V7.961H61.2026V8.09712C61.2026 9.2547 61.9366 10.0489 63.0636 10.0489C63.8732 10.0489 64.4934 9.64802 64.6977 9.02761H66.7251C66.4832 10.6164 65.0306 11.6836 63.0257 11.6836C60.5293 11.6836 59.0313 10.0865 59.0313 7.49177ZM61.2254 6.60642H64.6676C64.6222 5.56991 63.9489 4.85787 62.9655 4.85787C61.997 4.8592 61.3011 5.59293 61.2254 6.60642ZM82.1195 9.17857C82.1195 7.70336 83.2543 6.84857 85.2742 6.72727L87.3167 6.60642V6.07057C87.3167 5.31405 86.7872 4.87536 85.955 4.87536C85.1303 4.87536 84.6084 5.28394 84.5024 5.88155H82.4825C82.5657 4.30785 83.9048 3.22552 86.0533 3.22552H86.1502C88.1757 3.2585 89.4877 4.32423 89.4877 5.93312V11.5088H87.3543V10.2693H87.3089C86.8552 11.1325 85.8481 11.6387 84.8353 11.6387C83.2914 11.6387 82.119 10.64 82.119 9.17989L82.1195 9.17857ZM85.6079 8.0513C84.7832 8.11195 84.314 8.48269 84.314 9.05749C84.314 9.64824 84.7903 10.023 85.5092 10.0402H85.5615C86.5223 10.0402 87.3164 9.41229 87.3164 8.53514V7.94573L85.6079 8.0513ZM79.4438 11.4933C78.1202 11.3229 77.5874 10.6622 77.5874 9.32221V5.06327H76.4447V3.39905H77.587V1.53054V0.592516H79.7957V3.39905H81.2935V5.06327H79.7957V8.94439C79.7957 9.56413 80.0982 9.85961 80.749 9.85961C80.9287 9.86052 81.1081 9.84787 81.2859 9.82177V11.449C80.9396 11.5157 80.5872 11.5461 80.2346 11.5398C79.9703 11.5411 79.7061 11.5256 79.4438 11.4933ZM107.251 11.5083V3.39905H109.384V4.85987H109.428C109.716 3.8311 110.404 3.27134 111.357 3.27134C111.57 3.26926 111.781 3.29721 111.985 3.35434V5.29877C111.584 5.16481 111.156 5.13436 110.74 5.21024C109.924 5.37159 109.458 5.99996 109.458 6.97738V11.5088L107.251 11.5083ZM94.6774 11.5083V0.592516H96.8863V11.5088L94.6774 11.5083ZM90.9477 11.5083V3.39905H93.1566V11.5088L90.9477 11.5083ZM69.948 11.5083L67.1413 3.39905H69.5095L71.1966 9.55727H71.2419L72.921 3.39905H75.2284L72.4445 11.5088L69.948 11.5083ZM48.667 11.5088V0.592516H52.8355C56.1112 0.592516 58.0402 2.54425 58.0402 6.00904C58.0402 9.47383 56.1112 11.5088 52.8355 11.5088H48.667ZM50.9517 9.61747H52.5625C54.6053 9.61747 55.7095 8.37667 55.7095 6.01634C55.7095 3.73172 54.5749 2.47497 52.5625 2.47497H50.9517V9.61747ZM90.8948 1.16732C90.8915 0.93902 90.9562 0.714907 91.0807 0.523493C91.2052 0.332079 91.3838 0.182013 91.5938 0.0923841C91.8038 0.00275491 92.0357 -0.0223874 92.26 0.0201551C92.4844 0.0626975 92.691 0.171002 92.8536 0.331293C93.0162 0.491584 93.1274 0.696618 93.1732 0.920315C93.2189 1.14401 93.1971 1.37626 93.1105 1.58753C93.0239 1.79879 92.8764 1.97952 92.6868 2.10673C92.4972 2.23393 92.274 2.30187 92.0457 2.30189C91.8954 2.30379 91.7462 2.27587 91.6068 2.21973C91.4674 2.16359 91.3405 2.08035 91.2334 1.97483C91.1264 1.86931 91.0413 1.74361 90.9832 1.605C90.9251 1.46639 90.895 1.31763 90.8948 1.16732Z" fill="#0E151A"/>
</svg>
